<?xml version="1.0" encoding="UTF-8"?>
<svg width="512px" height="512px" viewBox="0 0 512 512" version="1.1" xmlns="http://www.w3.org/2000/svg" xmlns:xlink="http://www.w3.org/1999/xlink">
    <!-- Generator: Sketch 50.2 (55047) - http://www.bohemiancoding.com/sketch -->
    <title>icon</title>
    <desc>Created with Sketch.</desc>
    <defs></defs>
    <g id="icon" stroke="none" stroke-width="1" fill="none" fill-rule="evenodd">
        <g>
            <circle id="Oval-Copy" fill="#434343" cx="256" cy="256" r="256"></circle>
            <g transform="translate(120.000000, 101.000000)" id="Shape">
                <path d="M239.109123,60.3578831 C238.89464,58.7989428 237.527932,57.9372922 236.398153,57.8426601 C235.270868,57.7480278 211.408339,55.9823911 211.408339,55.9823911 C211.408339,55.9823911 194.835753,39.5537508 193.017631,37.7358173 C191.197016,35.9178837 187.643075,36.4707347 186.263898,36.8766569 C186.05939,36.9364246 182.64262,37.9898299 176.988736,39.7355441 C171.452071,23.829871 161.683099,9.21169326 144.494496,9.21169326 C144.020638,9.21169326 143.531814,9.23161582 143.042991,9.25900935 C138.154765,2.8041002 132.099348,0 126.869444,0 C86.8308744,0 67.701945,49.9782298 61.7038909,75.3770024 C46.14636,80.1907907 35.0929812,83.6124902 33.6813809,84.0557672 C24.9972959,86.7751964 24.7229566,87.0491317 23.5832016,95.2198712 C22.7227739,101.405826 0,276.873765 0,276.873765 L177.061062,310 L273,289.275558 C273,289.275558 239.321113,61.9168234 239.109123,60.3578831 L239.109123,60.3578831 L239.109123,60.3578831 Z M167.202306,42.7587924 C162.755516,44.133449 157.700191,45.6948796 152.220887,47.3882972 C152.225876,46.3348918 152.230864,45.2964285 152.230864,44.1633329 C152.230864,34.2767629 150.856673,26.3177006 148.651983,20.00723 C157.508153,21.1179126 163.406448,31.178805 167.202306,42.7587924 L167.202306,42.7587924 L167.202306,42.7587924 Z M137.665942,21.9671117 C140.127513,28.1281631 141.728658,36.9687987 141.728658,48.8999213 C141.728658,49.5100497 141.723669,50.0678814 141.718681,50.633184 C131.974649,53.646471 121.387647,56.9187513 110.775705,60.2009929 C116.733855,37.2402436 127.901958,26.1508492 137.665942,21.9671117 L137.665942,21.9671117 L137.665942,21.9671117 Z M125.769593,10.7233174 C127.497931,10.7233174 129.238738,11.3085426 130.904726,12.4540898 C118.073129,18.4831542 104.318756,33.6691249 98.5102455,63.9937502 C90.0206919,66.6185473 81.7231759,69.1835768 74.0516522,71.5568516 C80.8552662,48.4267605 97.0113555,10.7233174 125.769593,10.7233174 L125.769593,10.7233174 L125.769593,10.7233174 Z" fill="#95BF46"></path>
                <path d="M211.362729,55.4596673 C211.362729,55.4596673 194.77787,38.9970583 192.958402,37.175366 C192.277038,36.4965983 191.358569,36.1497282 190.397671,36 L177,310 L273,289.235202 C273,289.235202 239.296173,61.4063698 239.084026,59.8442062 C238.869384,58.2820426 237.501664,57.4186104 236.371049,57.3237826 C235.242928,57.2289547 211.362729,55.4596673 211.362729,55.4596673 Z" fill="#5E8E3E"></path>
                <path d="M145,110.621961 L133.126938,145.700635 C133.126938,145.700635 122.723303,140.186106 109.971589,140.186106 C91.2770863,140.186106 90.3358527,151.839216 90.3358527,154.775492 C90.3358527,170.796965 132.385967,176.935547 132.385967,214.463189 C132.385967,243.987552 113.531255,263 88.1079326,263 C57.6004471,263 42,244.141701 42,244.141701 L50.1682058,217.337308 C50.1682058,217.337308 66.2042239,231.01175 79.736961,231.01175 C88.5785494,231.01175 92.1757643,224.097455 92.1757643,219.04537 C92.1757643,198.14585 57.6780488,197.213502 57.6780488,162.873248 C57.6780488,133.97045 78.5654255,106 120.728187,106 C136.974481,106 145,110.621961 145,110.621961" fill="#FFFFFF"></path>
            </g>
        </g>
    </g>
</svg>